<svg xmlns="http://www.w3.org/2000/svg" width="92.925" height="13.641" viewBox="0 0 249.063 36.563">
  <metadata><?xpacket begin="﻿" id="W5M0MpCehiHzreSzNTczkc9d"?>
<x:xmpmeta xmlns:x="adobe:ns:meta/" x:xmptk="Adobe XMP Core 5.6-c138 79.159824, 2016/09/14-01:09:01        ">
   <rdf:RDF xmlns:rdf="http://www.w3.org/1999/02/22-rdf-syntax-ns#">
      <rdf:Description rdf:about=""/>
   </rdf:RDF>
</x:xmpmeta>
                                                                                                    
                                                                                                    
                                                                                                    
                                                                                                    
                                                                                                    
                                                                                                    
                                                                                                    
                                                                                                    
                                                                                                    
                                                                                                    
                                                                                                    
                                                                                                    
                                                                                                    
                                                                                                    
                                                                                                    
                                                                                                    
                                                                                                    
                                                                                                    
                                                                                                    
                                                                                                    
                           
<?xpacket end="w"?></metadata>
<defs>
    <style>
      .cls-1 {
        fill: #fff;
        fill-rule: evenodd;
      }
    </style>
  </defs>
  <path class="cls-1" d="M237,22.481L239.481,20,250,30.519,247.519,33Z" transform="translate(-0.938 -20)"/>
  <path id="Shape_3_copy" data-name="Shape 3 copy" class="cls-1" d="M250,22.481L247.519,20,237,30.519,239.481,33Z" transform="translate(-0.938 -20)"/>
  <path id="bwork" class="cls-1" d="M0.953,55.825H23.1a10.786,10.786,0,0,0,5.025-1.175,8.992,8.992,0,0,0,3.6-3.325,9.243,9.243,0,0,0,1.325-4.95,8.42,8.42,0,0,0-6.1-8.55A8.389,8.389,0,0,0,30.128,34.8,8.516,8.516,0,0,0,31.3,30.275a9.212,9.212,0,0,0-4.75-8.175,10.365,10.365,0,0,0-5.2-1.275H0.953v35Zm9.5-21.15v-6.3h7.7a4.064,4.064,0,0,1,2.725.8,2.94,2.94,0,0,1,.925,2.35,2.938,2.938,0,0,1-.925,2.35,4.06,4.06,0,0,1-2.725.8h-7.7Zm0,13.55v-6.35h9.3a4.264,4.264,0,0,1,2.825.825,2.939,2.939,0,0,1,.975,2.375,2.879,2.879,0,0,1-.975,2.325,4.264,4.264,0,0,1-2.825.825h-9.3Zm41.3,7.6h8l6.4-19,6.4,19H80.6l11.3-34.55v-0.45h-9.95L76.1,41.375l-6.6-19.55H62.8l-6.55,19.55L50.4,20.825h-10v0.45Zm66.551,0.75a19.747,19.747,0,0,0,9.95-2.45,16.929,16.929,0,0,0,6.6-6.625,19.45,19.45,0,0,0,0-18.35,16.94,16.94,0,0,0-6.6-6.625,21.43,21.43,0,0,0-19.9,0,17.1,17.1,0,0,0-6.625,6.625,19.264,19.264,0,0,0,0,18.35,17.094,17.094,0,0,0,6.625,6.625,19.742,19.742,0,0,0,9.95,2.45h0Zm0-8.9a9.7,9.7,0,0,1-4.9-1.2,8.148,8.148,0,0,1-3.225-3.325,10.909,10.909,0,0,1,0-9.65,8.321,8.321,0,0,1,3.225-3.35,10.413,10.413,0,0,1,9.8,0,8.157,8.157,0,0,1,3.2,3.35,10.347,10.347,0,0,1,1.1,4.825,9.408,9.408,0,0,1-2.475,6.725,8.8,8.8,0,0,1-6.725,2.625h0Zm56.2-4.35a10.856,10.856,0,0,0,4.55-4.2,12,12,0,0,0,1.65-6.3,11.782,11.782,0,0,0-1.65-6.225,11.47,11.47,0,0,0-4.525-4.25,13.606,13.606,0,0,0-6.475-1.525H149.2v35h9.5v-11h6.7l7.3,11h10v-0.45Zm-15.8-14.2h8.1a4.687,4.687,0,0,1,3.2,1.05,3.593,3.593,0,0,1,1.2,2.85,3.593,3.593,0,0,1-1.2,2.85,4.687,4.687,0,0,1-3.2,1.05h-8.1v-7.8Zm56.2,6.55,12.5-14.4v-0.45h-11.25L203.1,36.275V20.825h-9.5v35h9.5v-6.5l5.65-6.55,8.55,13.05h10.4v-0.45Z" transform="translate(-0.938 -20)"/>
</svg>
